PathFileType	4	(X/Y/Z)	OpenSim_Sub09_CSStiffKnee_Gyro.trc
DataRate	CameraRate	NumFrames	NumMarkers	Units	OrigDataRate	OrigDataStartFrame	OrigNumFrames
100	100	20	8	m	100	3564	7127
Frame#	Time	torso_imu_offset_imu	pelvis_imu_offset_imu	tibia_r_imu_offset_imu	femur_r_imu_offset_imu	tibia_l_imu_offset_imu	femur_l_imu_offset_imu	toes_r_imu_offset_imu	toes_l_imu_offset_imu
				X1	Y1	Z1	X2	Y2	Z2	X3	Y3	Z3	X4	Y4	Z4	X5	Y5	Z5	X6	Y6	Z6	X7	Y7	Z7	X8		Y8	Z8	

3564	35.63000000	-0.15482329	0.17410540	0.06038183	0.66741301	0.05001914	0.08320770	-1.98536326	-1.55287315	-0.85265185	-1.32141362	-0.91285724	-1.70150787	-0.63503063	0.48770793	1.29393354	0.58285559	0.16135644	-0.17990960	0.52451261	-0.17993189	-0.28157730	-0.35146944	-2.22739410	1.94213470
3565	35.64000000	-0.21766672	0.20760122	0.02691041	0.81987462	0.05888332	0.10874641	-1.91664683	-1.00870513	-0.31465057	-0.73728026	-0.67235351	-1.80570660	-1.40995058	0.36866632	1.25352120	0.53173918	0.11106135	-0.36994168	0.46795875	-0.14390692	-0.23472353	-0.61116570	-1.87489595	1.93954728
3566	35.65000000	-0.25352951	0.21651438	-0.00963173	0.89820453	0.02180337	0.08941214	-1.83381922	-0.86986916	-0.41060823	-0.12153149	-0.45138764	-1.63092437	-1.78907636	0.21860373	1.11596691	0.54773953	0.12043374	-0.53876988	0.35773030	-0.12163409	-0.14852381	-1.01354418	-1.66434778	1.90347471
3567	35.66000000	-0.23541168	0.19587169	-0.01863906	0.91531078	-0.05536829	0.03942923	-1.53364972	-0.63122880	-0.68429237	0.36431083	-0.33322454	-1.44685342	-1.82417004	0.12131830	0.99090454	0.57530282	0.15569183	-0.72249351	0.20953768	-0.10825976	-0.07009011	-1.46552709	-1.56112025	1.69416836
3568	35.67000000	-0.16367292	0.16423215	0.00162608	0.88129641	-0.14935420	-0.03561953	-1.13913513	-0.38648538	-0.59385684	0.66841034	-0.26696487	-1.33521146	-1.73639177	0.07042826	1.00811738	0.65782044	0.13720760	-0.83386137	0.10793670	-0.12595565	-0.02799393	-1.05054306	-0.77888311	0.82368269
3569	35.68000000	-0.07226943	0.12931328	0.02218019	0.79167601	-0.21826553	-0.13098528	-0.45528339	-0.36224077	-0.30692229	0.76375892	-0.12511730	-1.25918065	-1.41013938	0.01247034	0.99706889	0.73329340	0.11474652	-0.84653096	0.04805030	-0.14960515	0.00040495	-0.97560351	0.25701665	-0.25882147
3570	35.69000000	0.01455754	0.09375099	0.03988031	0.66044705	-0.25388570	-0.23537770	0.37458641	-0.23714039	-0.40822254	0.66954566	-0.03612534	-1.19245506	-0.63148837	-0.17440982	0.42921791	0.63703083	0.18861157	-0.78743674	0.00240757	-0.16275171	0.03106154	-0.48006439	0.52986165	-1.07778237
3571	35.70000000	0.09058921	0.07139595	0.04809959	0.52299458	-0.23991727	-0.34997894	0.81513289	-0.24758412	-0.67846244	0.44123947	-0.07379471	-1.15126816	0.32606520	-0.21334621	-0.47721764	0.34139215	0.24667797	-0.66570922	-0.05628422	-0.16060379	0.06182231	-0.19353392	0.67557832	-1.65280925
3572	35.71000000	0.12077609	0.05206648	0.05800177	0.42464984	-0.21024112	-0.45539602	0.87227168	-0.22445967	-0.74183997	0.19248011	-0.10135141	-1.14991945	0.87186463	0.12207838	-1.01552302	-0.02890027	0.18592365	-0.44343044	-0.06136501	-0.18164921	0.07161684	-0.12849136	1.09544168	-2.06104920
3573	35.72000000	0.12095501	0.06269960	0.06798869	0.36226902	-0.17470868	-0.53937997	0.46302226	-0.07542438	-0.59059138	-0.07643946	-0.11763248	-1.18066833	1.12629341	0.30772090	-1.24294832	-0.23901124	-0.03552963	-0.21095173	-0.06312497	-0.21114816	0.07427908	0.09148743	1.59833922	-2.24695052
3574	35.73000000	0.14419601	0.08902940	0.06722213	0.32134547	-0.14591702	-0.59553093	-0.21614569	-0.13348285	-0.32933969	-0.39586736	-0.17101193	-1.20790324	1.03621717	0.02172403	-1.48156874	-0.34325560	-0.23647993	0.00761071	-0.06845972	-0.23057554	0.07364330	0.44177312	1.98314690	-2.17181406
3575	35.74000000	0.17868051	0.10511361	0.08462536	0.28541150	-0.11778215	-0.60853489	-0.83974184	-0.21991194	-0.17539151	-0.75421625	-0.25159266	-1.21857917	0.86652925	-0.26517094	-1.81924065	-0.42868461	-0.27569930	0.13897626	-0.03195121	-0.23141533	0.04090708	0.82578139	2.11265425	-1.82977541
3576	35.75000000	0.21454795	0.10881103	0.11976070	0.25138820	-0.10181450	-0.59039033	-1.35792423	-0.22204988	-0.14419516	-1.06429043	-0.30632873	-1.23271591	0.86591288	-0.24429700	-2.14745423	-0.44502119	-0.26098711	0.11980978	0.02532410	-0.22352875	-0.00720132	1.09195809	2.16051148	-1.33481271
3577	35.76000000	0.25220770	0.10629694	0.15570333	0.23347866	-0.09408383	-0.56609117	-1.59346914	-0.25424102	-0.09180843	-1.29155364	-0.32451539	-1.24134844	0.96738318	-0.07529294	-2.32046899	-0.40669549	-0.23552529	0.02261468	0.05289407	-0.18540432	-0.02650927	1.27355142	2.29484264	-0.85338660
3578	35.77000000	0.29175054	0.10504174	0.18685857	0.23566463	-0.08150234	-0.52887421	-1.46147342	-0.24707151	-0.08051427	-1.42534283	-0.30955760	-1.23389819	1.08554091	0.02752523	-2.31829594	-0.41452501	-0.20556258	-0.10382665	0.05141668	-0.15284328	-0.03060126	1.37349545	2.44644667	-0.45544574
3579	35.78000000	0.34462231	0.09805689	0.20563041	0.24513876	-0.05322015	-0.49956026	-1.14046967	-0.19445470	-0.15631589	-1.47470563	-0.28231301	-1.23050256	1.21099443	-0.03474357	-2.24787759	-0.43817114	-0.18842632	-0.23755060	0.05077369	-0.14726368	-0.03212653	1.40666484	2.47440818	-0.14637162
3580	35.79000000	0.39121051	0.07357468	0.20919764	0.24644802	-0.03447236	-0.48857078	-0.75894604	-0.13563090	-0.24589088	-1.45207770	-0.25265080	-1.22590634	1.54024771	-0.18674701	-2.20760695	-0.39081206	-0.24336774	-0.38742540	0.04712777	-0.14370268	-0.02789270	1.41151579	2.33787220	0.07551590
3581	35.80000000	0.43346751	0.04409711	0.20384871	0.24953675	-0.02479594	-0.46644860	-0.34312595	-0.05233112	-0.29420769	-1.40456436	-0.22434125	-1.21884078	1.89874455	-0.30874062	-2.19318909	-0.31284764	-0.30424959	-0.52159695	0.03943432	-0.11887546	-0.03067104	1.41004524	2.18208633	0.16982398
3582	35.81000000	0.46177811	0.01741271	0.21270706	0.26232389	-0.00638519	-0.44240310	-0.08321291	0.02660956	-0.29381205	-1.31928897	-0.18256166	-1.19450674	2.12180975	-0.38242669	-2.14522216	-0.19207272	-0.36511495	-0.63756310	0.03876474	-0.09879326	-0.03801250	1.39174087	2.12086893	0.14174265
3583	35.82000000	0.48217219	-0.00414421	0.22756596	0.28189241	0.00397447	-0.39971545	-0.08670969	0.01672180	-0.27343911	-1.19681773	-0.16125437	-1.13955722	2.18608201	-0.39498895	-2.04454429	-0.03233060	-0.45439779	-0.77693469	0.06033511	-0.08055985	-0.05414486	1.30950775	2.10665157	0.04762640
